<svg width="64" height="64" viewBox="0 0 64 64" fill="none" xmlns="http://www.w3.org/2000/svg">
<g filter="url(#filter0_i)">
<path d="M32 10.875C28.8145 10.875 26.25 13.4395 26.25 16.625V33.875C26.25 37.0605 28.8145 39.625 32 39.625C35.1855 39.625 37.75 37.0605 37.75 33.875V16.625C37.75 13.4395 35.1855 10.875 32 10.875ZM17.625 25.25V28.125H20.5V33.875C20.4982 36.421 21.3454 38.8949 22.9075 40.9053C24.4696 42.9158 26.6575 44.348 29.125 44.9754V51.125H26.25V54H37.75V51.125H34.875V44.9754C37.3425 44.348 39.5304 42.9158 41.0925 40.9053C42.6546 38.8949 43.5018 36.421 43.5 33.875V28.125H46.375V25.25H40.625V33.875C40.625 38.6532 36.7782 42.5 32 42.5C27.2218 42.5 23.375 38.6532 23.375 33.875V25.25H17.625Z" fill="#C6262E"/>
</g>
<defs>
<filter id="filter0_i" x="17.625" y="10.875" width="28.75" height="43.125" filterUnits="userSpaceOnUse" color-interpolation-filters="sRGB">
<feFlood flood-opacity="0" result="BackgroundImageFix"/>
<feBlend mode="normal" in="SourceGraphic" in2="BackgroundImageFix" result="shape"/>
<feColorMatrix in="SourceAlpha" type="matrix" values="0 0 0 0 0 0 0 0 0 0 0 0 0 0 0 0 0 0 127 0" result="hardAlpha"/>
<feOffset/>
<feGaussianBlur stdDeviation="3"/>
<feComposite in2="hardAlpha" operator="arithmetic" k2="-1" k3="1"/>
<feColorMatrix type="matrix" values="0 0 0 0 0 0 0 0 0 0 0 0 0 0 0 0 0 0 0.5 0"/>
<feBlend mode="normal" in2="shape" result="effect1_innerShadow"/>
</filter>
</defs>
</svg>
