<svg width="64" height="64" viewBox="0 0 64 64" fill="none" xmlns="http://www.w3.org/2000/svg">
<g filter="url(#filter0_i)">
<path d="M28 32C28 36.9706 23.9706 30 19 30C14.0294 30 10 36.9706 10 32C10 27.0294 14.0294 23 19 23C23.9706 23 28 27.0294 28 32Z" fill="url(#paint0_linear)"/>
</g>
<g filter="url(#filter1_i)">
<path d="M54 32C54 36.9706 49.9706 30 45 30C40.0294 30 36 36.9706 36 32C36 27.0294 40.0294 23 45 23C49.9706 23 54 27.0294 54 32Z" fill="url(#paint1_linear)"/>
</g>
<defs>
<filter id="filter0_i" x="10" y="23" width="18" height="10.7879" filterUnits="userSpaceOnUse" color-interpolation-filters="sRGB">
<feFlood flood-opacity="0" result="BackgroundImageFix"/>
<feBlend mode="normal" in="SourceGraphic" in2="BackgroundImageFix" result="shape"/>
<feColorMatrix in="SourceAlpha" type="matrix" values="0 0 0 0 0 0 0 0 0 0 0 0 0 0 0 0 0 0 127 0" result="hardAlpha"/>
<feOffset/>
<feGaussianBlur stdDeviation="3"/>
<feComposite in2="hardAlpha" operator="arithmetic" k2="-1" k3="1"/>
<feColorMatrix type="matrix" values="0 0 0 0 0 0 0 0 0 0 0 0 0 0 0 0 0 0 0.5 0"/>
<feBlend mode="normal" in2="shape" result="effect1_innerShadow"/>
</filter>
<filter id="filter1_i" x="36" y="23" width="18" height="10.7879" filterUnits="userSpaceOnUse" color-interpolation-filters="sRGB">
<feFlood flood-opacity="0" result="BackgroundImageFix"/>
<feBlend mode="normal" in="SourceGraphic" in2="BackgroundImageFix" result="shape"/>
<feColorMatrix in="SourceAlpha" type="matrix" values="0 0 0 0 0 0 0 0 0 0 0 0 0 0 0 0 0 0 127 0" result="hardAlpha"/>
<feOffset/>
<feGaussianBlur stdDeviation="3"/>
<feComposite in2="hardAlpha" operator="arithmetic" k2="-1" k3="1"/>
<feColorMatrix type="matrix" values="0 0 0 0 0 0 0 0 0 0 0 0 0 0 0 0 0 0 0.5 0"/>
<feBlend mode="normal" in2="shape" result="effect1_innerShadow"/>
</filter>
<linearGradient id="paint0_linear" x1="13.9375" y1="25.0391" x2="24.0625" y2="38.9609" gradientUnits="userSpaceOnUse">
<stop stop-color="#3689E6"/>
<stop offset="1" stop-color="#36E6DB"/>
</linearGradient>
<linearGradient id="paint1_linear" x1="39.9375" y1="25.0391" x2="50.0625" y2="38.9609" gradientUnits="userSpaceOnUse">
<stop stop-color="#3689E6"/>
<stop offset="1" stop-color="#36E6DB"/>
</linearGradient>
</defs>
</svg>
