<?xml version="1.0" encoding="UTF-8" standalone="no"?>
<svg
   xmlns:dc="http://purl.org/dc/elements/1.1/"
   xmlns:cc="http://creativecommons.org/ns#"
   xmlns:rdf="http://www.w3.org/1999/02/22-rdf-syntax-ns#"
   xmlns:svg="http://www.w3.org/2000/svg"
   xmlns="http://www.w3.org/2000/svg"
   width="64"
   height="64"
   viewBox="0 0 64 64"
   fill="none"
   version="1.1"
   id="svg34">
  <metadata
     id="metadata38">
    <rdf:RDF>
      <cc:Work
         rdf:about="">
        <dc:format>image/svg+xml</dc:format>
        <dc:type
           rdf:resource="http://purl.org/dc/dcmitype/StillImage" />
        <dc:title></dc:title>
      </cc:Work>
    </rdf:RDF>
  </metadata>
  <path
     style="stroke:#ffffff;stroke-opacity:1"
     d="M17.125 24.75H17.625H23.375H23.875V25.25V33.875C23.875 38.3771 27.4979 42 32 42C36.5021 42 40.125 38.3771 40.125 33.875V25.25V24.75H40.625H46.375H46.875V25.25V28.125V28.625H46.375H44V33.8747V33.875H43.5C43.5018 36.421 42.6546 38.8949 41.0925 40.9053C39.5304 42.9158 37.3425 44.348 34.875 44.9754L17.125 24.75ZM17.125 24.75V25.25V28.125V28.625H17.625H20M17.125 24.75L20 28.625M20 33.8747C20 33.8748 20 33.8749 20 33.875C19.9982 36.5321 20.8824 39.1139 22.5127 41.2121C24.0631 43.2075 26.2041 44.6571 28.625 45.3576V50.625H26.25H25.75V51.125V54V54.5H26.25H37.75H38.25V54V51.125V50.625H37.75H35.375V45.3576L20.5 33.875L20 33.8747ZM20 33.8747L20 28.625M20 33.8747L20 28.625M32 10.375C28.5384 10.375 25.75 13.1634 25.75 16.625V33.875C25.75 37.3366 28.5384 40.125 32 40.125C35.4616 40.125 38.25 37.3366 38.25 33.875V16.625C38.25 13.1634 35.4616 10.375 32 10.375Z"
     stroke="url(#paint0_linear)"
     id="path2" />
  <g
     filter="url(#filter0_i)"
     id="g6">
    <path
       d="M32 10.875C28.8145 10.875 26.25 13.4395 26.25 16.625V33.875C26.25 37.0605 28.8145 39.625 32 39.625C35.1855 39.625 37.75 37.0605 37.75 33.875V16.625C37.75 13.4395 35.1855 10.875 32 10.875ZM17.625 25.25V28.125H20.5V33.875C20.4982 36.421 21.3454 38.8949 22.9075 40.9053C24.4696 42.9158 26.6575 44.348 29.125 44.9754V51.125H26.25V54H37.75V51.125H34.875V44.9754C37.3425 44.348 39.5304 42.9158 41.0925 40.9053C42.6546 38.8949 43.5018 36.421 43.5 33.875V28.125H46.375V25.25H40.625V33.875C40.625 38.6532 36.7782 42.5 32 42.5C27.2218 42.5 23.375 38.6532 23.375 33.875V25.25H17.625Z"
       fill="#666666"
       id="path4" />
  </g>
  <defs
     id="defs32">
    <filter
       id="filter0_i"
       x="17.625"
       y="10.875"
       width="28.75"
       height="43.125"
       filterUnits="userSpaceOnUse"
       color-interpolation-filters="sRGB">
      <feFlood
         flood-opacity="0"
         result="BackgroundImageFix"
         id="feFlood8" />
      <feBlend
         mode="normal"
         in="SourceGraphic"
         in2="BackgroundImageFix"
         result="shape"
         id="feBlend10" />
      <feColorMatrix
         in="SourceAlpha"
         type="matrix"
         values="0 0 0 0 0 0 0 0 0 0 0 0 0 0 0 0 0 0 127 0"
         result="hardAlpha"
         id="feColorMatrix12" />
      <feOffset
         id="feOffset14" />
      <feGaussianBlur
         stdDeviation="3"
         id="feGaussianBlur16" />
      <feComposite
         in2="hardAlpha"
         operator="arithmetic"
         k2="-1"
         k3="1"
         id="feComposite18" />
      <feColorMatrix
         type="matrix"
         values="0 0 0 0 0 0 0 0 0 0 0 0 0 0 0 0 0 0 0.5 0"
         id="feColorMatrix20" />
      <feBlend
         mode="normal"
         in2="shape"
         result="effect1_innerShadow"
         id="feBlend22" />
    </filter>
    <linearGradient
       id="paint0_linear"
       x1="32"
       y1="11.875"
       x2="32"
       y2="55"
       gradientUnits="userSpaceOnUse">
      <stop
         stop-opacity="0.15"
         id="stop25" />
      <stop
         offset="0.510417"
         stop-color="#F3F3F3"
         stop-opacity="0.15"
         id="stop27" />
      <stop
         offset="0.96875"
         stop-color="white"
         id="stop29" />
    </linearGradient>
  </defs>
</svg>
