<svg width="64" height="64" viewBox="0 0 64 64" fill="none" xmlns="http://www.w3.org/2000/svg">
<g clip-path="url(#clip0)">
<g filter="url(#filter0_i)">
<ellipse cx="13.913" cy="32" rx="12.5217" ry="2.73913" fill="url(#paint0_linear)"/>
</g>
<path d="M13.913 35.7391C17.4205 35.7391 20.626 35.4289 22.9809 34.9138C24.1503 34.658 25.1642 34.3402 25.9101 33.9544C26.2819 33.7622 26.6368 33.5279 26.9107 33.2352C27.1891 32.9375 27.4348 32.5205 27.4348 32C27.4348 31.4795 27.1891 31.0625 26.9107 30.7648C26.6368 30.4721 26.2819 30.2378 25.9101 30.0456C25.1642 29.6598 24.1503 29.342 22.9809 29.0863C20.626 28.5711 17.4205 28.2609 13.913 28.2609C10.4055 28.2609 7.20007 28.5711 4.84513 29.0863C3.67581 29.342 2.66188 29.6598 1.91593 30.0456C1.54422 30.2378 1.18927 30.4721 0.91541 30.7648C0.636934 31.0625 0.391296 31.4795 0.391296 32C0.391296 32.5205 0.636934 32.9375 0.91541 33.2352C1.18927 33.5279 1.54422 33.7622 1.91593 33.9544C2.66188 34.3402 3.67581 34.658 4.84513 34.9138C7.20007 35.4289 10.4055 35.7391 13.913 35.7391Z" stroke="black" stroke-opacity="0.01" stroke-width="2"/>
<g filter="url(#filter1_i)">
<ellipse cx="50.0869" cy="32" rx="12.5217" ry="2.73913" fill="url(#paint1_linear)"/>
</g>
<path d="M50.0869 35.7391C53.5944 35.7391 56.7999 35.4289 59.1548 34.9138C60.3242 34.658 61.3381 34.3402 62.084 33.9544C62.4557 33.7622 62.8107 33.5279 63.0846 33.2352C63.363 32.9375 63.6087 32.5205 63.6087 32C63.6087 31.4795 63.363 31.0625 63.0846 30.7648C62.8107 30.4721 62.4557 30.2378 62.084 30.0456C61.3381 29.6598 60.3242 29.342 59.1548 29.0863C56.7999 28.5711 53.5944 28.2609 50.0869 28.2609C46.5794 28.2609 43.374 28.5711 41.019 29.0863C39.8497 29.342 38.8358 29.6598 38.0898 30.0456C37.7181 30.2378 37.3632 30.4721 37.0893 30.7648C36.8108 31.0625 36.5652 31.4795 36.5652 32C36.5652 32.5205 36.8108 32.9375 37.0893 33.2352C37.3632 33.5279 37.7181 33.7622 38.0898 33.9544C38.8358 34.3402 39.8497 34.658 41.019 34.9138C43.374 35.4289 46.5794 35.7391 50.0869 35.7391Z" stroke="black" stroke-opacity="0.01" stroke-width="2"/>
</g>
<defs>
<filter id="filter0_i" x="-0.608704" y="27.2609" width="29.0435" height="9.47826" filterUnits="userSpaceOnUse" color-interpolation-filters="sRGB">
<feFlood flood-opacity="0" result="BackgroundImageFix"/>
<feBlend mode="normal" in="SourceGraphic" in2="BackgroundImageFix" result="shape"/>
<feColorMatrix in="SourceAlpha" type="matrix" values="0 0 0 0 0 0 0 0 0 0 0 0 0 0 0 0 0 0 127 0" result="hardAlpha"/>
<feOffset/>
<feGaussianBlur stdDeviation="3"/>
<feComposite in2="hardAlpha" operator="arithmetic" k2="-1" k3="1"/>
<feColorMatrix type="matrix" values="0 0 0 0 0 0 0 0 0 0 0 0 0 0 0 0 0 0 0.5 0"/>
<feBlend mode="normal" in2="shape" result="effect1_innerShadow"/>
</filter>
<filter id="filter1_i" x="35.5652" y="27.2609" width="29.0435" height="9.47826" filterUnits="userSpaceOnUse" color-interpolation-filters="sRGB">
<feFlood flood-opacity="0" result="BackgroundImageFix"/>
<feBlend mode="normal" in="SourceGraphic" in2="BackgroundImageFix" result="shape"/>
<feColorMatrix in="SourceAlpha" type="matrix" values="0 0 0 0 0 0 0 0 0 0 0 0 0 0 0 0 0 0 127 0" result="hardAlpha"/>
<feOffset/>
<feGaussianBlur stdDeviation="3"/>
<feComposite in2="hardAlpha" operator="arithmetic" k2="-1" k3="1"/>
<feColorMatrix type="matrix" values="0 0 0 0 0 0 0 0 0 0 0 0 0 0 0 0 0 0 0.5 0"/>
<feBlend mode="normal" in2="shape" result="effect1_innerShadow"/>
</filter>
<linearGradient id="paint0_linear" x1="6.86956" y1="29.8815" x2="7.87474" y2="36.1998" gradientUnits="userSpaceOnUse">
<stop stop-color="#3689E6"/>
<stop offset="1" stop-color="#36E6DB"/>
</linearGradient>
<linearGradient id="paint1_linear" x1="43.0435" y1="29.8815" x2="44.0486" y2="36.1998" gradientUnits="userSpaceOnUse">
<stop stop-color="#3689E6"/>
<stop offset="1" stop-color="#36E6DB"/>
</linearGradient>
<clipPath id="clip0">
<rect width="64" height="14" fill="white" transform="translate(0 25)"/>
</clipPath>
</defs>
</svg>
