<svg width="64" height="64" viewBox="0 0 64 64" fill="none" xmlns="http://www.w3.org/2000/svg">
<g clip-path="url(#clip0)">
<g filter="url(#filter0_i)">
<path d="M14 27.5V36.5H17.717L25.25 44.0825V19.9175L17.717 27.5H14Z" fill="url(#paint0_linear)"/>
</g>
<path d="M14 26.5H13V27.5V36.5V37.5H14H17.3009L24.5406 44.7873L26.25 46.5079V44.0825V19.9175V17.4921L24.5406 19.2127L17.3009 26.5H14Z" stroke="black" stroke-opacity="0.01" stroke-width="2"/>
<g filter="url(#filter1_i)">
<path d="M32 27.5V29.75L34.25 32L32 34.25V36.5H34.25L36.5 34.25L38.75 36.5H41V34.25L38.75 32L41 29.75V27.5H38.75L36.5 29.75L34.25 27.5H32Z" fill="url(#paint1_linear)"/>
</g>
<path d="M32 26.5H31V27.5V29.75V30.1642L31.2929 30.4571L32.8358 32L31.2929 33.5429L31 33.8358V34.25V36.5V37.5H32H34.25H34.6642L34.9571 37.2071L36.5 35.6642L38.0429 37.2071L38.3358 37.5H38.75H41H42V36.5V34.25V33.8358L41.7071 33.5429L40.1642 32L41.7071 30.4571L42 30.1642V29.75V27.5V26.5H41H38.75H38.3358L38.0429 26.7929L36.5 28.3358L34.9571 26.7929L34.6642 26.5H34.25H32Z" stroke="black" stroke-opacity="0.01" stroke-width="2"/>
</g>
<defs>
<filter id="filter0_i" x="12" y="15.0666" width="15.25" height="33.8667" filterUnits="userSpaceOnUse" color-interpolation-filters="sRGB">
<feFlood flood-opacity="0" result="BackgroundImageFix"/>
<feBlend mode="normal" in="SourceGraphic" in2="BackgroundImageFix" result="shape"/>
<feColorMatrix in="SourceAlpha" type="matrix" values="0 0 0 0 0 0 0 0 0 0 0 0 0 0 0 0 0 0 127 0" result="hardAlpha"/>
<feOffset/>
<feGaussianBlur stdDeviation="3"/>
<feComposite in2="hardAlpha" operator="arithmetic" k2="-1" k3="1"/>
<feColorMatrix type="matrix" values="0 0 0 0 0 0 0 0 0 0 0 0 0 0 0 0 0 0 0.5 0"/>
<feBlend mode="normal" in2="shape" result="effect1_innerShadow"/>
</filter>
<filter id="filter1_i" x="30" y="25.5" width="13" height="13" filterUnits="userSpaceOnUse" color-interpolation-filters="sRGB">
<feFlood flood-opacity="0" result="BackgroundImageFix"/>
<feBlend mode="normal" in="SourceGraphic" in2="BackgroundImageFix" result="shape"/>
<feColorMatrix in="SourceAlpha" type="matrix" values="0 0 0 0 0 0 0 0 0 0 0 0 0 0 0 0 0 0 127 0" result="hardAlpha"/>
<feOffset/>
<feGaussianBlur stdDeviation="3"/>
<feComposite in2="hardAlpha" operator="arithmetic" k2="-1" k3="1"/>
<feColorMatrix type="matrix" values="0 0 0 0 0 0 0 0 0 0 0 0 0 0 0 0 0 0 0.5 0"/>
<feBlend mode="normal" in2="shape" result="effect1_innerShadow"/>
</filter>
<linearGradient id="paint0_linear" x1="16.4609" y1="22.655" x2="29.4363" y2="30.9609" gradientUnits="userSpaceOnUse">
<stop stop-color="#1A1A1A"/>
<stop offset="1" stop-color="#4D4D4D"/>
</linearGradient>
<linearGradient id="paint1_linear" x1="33.9688" y1="28.5195" x2="39.0313" y2="35.4805" gradientUnits="userSpaceOnUse">
<stop stop-color="#1A1A1A"/>
<stop offset="1" stop-color="#4D4D4D"/>
</linearGradient>
<clipPath id="clip0">
<rect width="36" height="36" fill="white" transform="translate(14 14)"/>
</clipPath>
</defs>
</svg>
