<svg width="64" height="64" viewBox="0 0 64 64" fill="none" xmlns="http://www.w3.org/2000/svg">
<g opacity="0.4">
<rect x="22" y="55" width="20" height="8" fill="url(#paint0_linear)"/>
<rect x="14" y="55" width="8" height="8" fill="url(#paint1_radial)"/>
<rect width="8" height="8" transform="matrix(-1 0 0 1 50 55)" fill="url(#paint2_radial)"/>
</g>
<circle cx="32" cy="34" r="25.5" fill="url(#paint3_linear)"/>
<circle cx="32" cy="34" r="25.5" stroke="black" stroke-opacity="0.5"/>
<circle cx="32" cy="34" r="24.5" stroke="url(#paint4_linear)"/>
<circle cx="32" cy="34" r="18.5" stroke="black" stroke-opacity="0.07"/>
<circle cx="32" cy="34" r="18" fill="#010101" fill-opacity="0.15"/>
<circle cx="32" cy="34" r="15.5" stroke="url(#paint5_linear)" stroke-width="3"/>
<path d="M48.5 34C48.5 43.1127 41.1127 50.5 32 50.5C22.8873 50.5 15.5 43.1127 15.5 34C15.5 24.8873 22.8873 17.5 32 17.5C41.1127 17.5 48.5 24.8873 48.5 34Z" stroke="black" stroke-opacity="0.3"/>
<circle cx="32" cy="34" r="14" fill="url(#paint6_linear)"/>
<circle cx="32" cy="34" r="13.5" stroke="url(#paint7_linear)"/>
<circle cx="27" cy="34" r="3.5" stroke="black" stroke-opacity="0.07"/>
<circle cx="27" cy="34" r="3" fill="url(#paint8_linear)"/>
<path d="M40 34.5C40 34.7761 38.6569 35 37 35C35.3431 35 34 34.7761 34 34.5C34 34.2239 35.3431 34 37 34C38.6569 34 40 34.2239 40 34.5Z" fill="url(#paint9_linear)"/>
<path d="M41.8981 31.7626C41.9925 32.0221 40.3289 32.8658 38.1822 33.6471C36.0356 34.4285 34.2188 34.8515 34.1243 34.592C34.0299 34.3325 35.6935 33.4888 37.8402 32.7075C39.9869 31.9261 41.8036 31.5031 41.8981 31.7626Z" fill="url(#paint10_linear)"/>
<path d="M39.9475 33.8402C39.806 33.7844 39.6345 33.7377 39.4453 33.6983C40.0862 33.4393 40.6549 33.1843 41.1067 32.9551C41.4513 32.7804 41.7448 32.6122 41.9527 32.4614C42.0535 32.3884 42.1591 32.3017 42.2398 32.2036C42.2916 32.1406 42.4798 31.899 42.3679 31.5916C42.256 31.2842 41.9566 31.2201 41.8764 31.2051C41.7515 31.1818 41.6149 31.1833 41.4908 31.1921C41.2345 31.2103 40.9016 31.2701 40.5253 31.3577C39.766 31.5346 38.7553 31.8423 37.6692 32.2376C36.5831 32.6329 35.611 33.0468 34.9157 33.3995C34.6587 33.5298 34.4301 33.6565 34.2443 33.775C34.1757 33.7952 34.1115 33.8169 34.0525 33.8402C33.9551 33.8786 33.8423 33.9325 33.7452 34.0116C33.6543 34.0856 33.5 34.2471 33.5 34.5C33.5 34.7529 33.6543 34.9144 33.7452 34.9885C33.8423 35.0675 33.9551 35.1214 34.0525 35.1598C34.2522 35.2385 34.5117 35.2993 34.7965 35.3468C35.374 35.443 36.1528 35.5 37 35.5C37.8472 35.5 38.626 35.443 39.2035 35.3468C39.4883 35.2993 39.7478 35.2385 39.9475 35.1598C40.0449 35.1214 40.1577 35.0675 40.2548 34.9885C40.3457 34.9144 40.5 34.7529 40.5 34.5C40.5 34.2471 40.3457 34.0856 40.2548 34.0116C40.1577 33.9325 40.0449 33.8786 39.9475 33.8402Z" stroke="black" stroke-opacity="0.07"/>
<defs>
<linearGradient id="paint0_linear" x1="32" y1="55" x2="32" y2="63" gradientUnits="userSpaceOnUse">
<stop stop-opacity="0"/>
<stop offset="0.491713" stop-opacity="0.6"/>
<stop offset="1" stop-opacity="0"/>
</linearGradient>
<radialGradient id="paint1_radial" cx="0" cy="0" r="1" gradientUnits="userSpaceOnUse" gradientTransform="translate(22 59) rotate(-180) scale(8 4)">
<stop stop-opacity="0.6"/>
<stop offset="1" stop-opacity="0"/>
</radialGradient>
<radialGradient id="paint2_radial" cx="0" cy="0" r="1" gradientUnits="userSpaceOnUse" gradientTransform="translate(8 4) rotate(-180) scale(8 4)">
<stop stop-opacity="0.6"/>
<stop offset="1" stop-opacity="0"/>
</radialGradient>
<linearGradient id="paint3_linear" x1="32" y1="8.5" x2="32" y2="59.5" gradientUnits="userSpaceOnUse">
<stop stop-color="#FAFAFA"/>
<stop offset="1" stop-color="#D4D4D4"/>
</linearGradient>
<linearGradient id="paint4_linear" x1="32" y1="9" x2="32" y2="59" gradientUnits="userSpaceOnUse">
<stop stop-color="white" stop-opacity="0.3"/>
<stop offset="1" stop-color="white" stop-opacity="0.21"/>
</linearGradient>
<linearGradient id="paint5_linear" x1="32" y1="17" x2="32" y2="51" gradientUnits="userSpaceOnUse">
<stop stop-color="#CD9EF7"/>
<stop offset="1" stop-color="#64FFE3"/>
</linearGradient>
<linearGradient id="paint6_linear" x1="32" y1="20" x2="32" y2="48" gradientUnits="userSpaceOnUse">
<stop stop-color="#F8F8F8"/>
<stop offset="1" stop-color="#E9E9E9"/>
</linearGradient>
<linearGradient id="paint7_linear" x1="32" y1="20" x2="32" y2="48" gradientUnits="userSpaceOnUse">
<stop stop-opacity="0.36"/>
<stop offset="1" stop-opacity="0.27"/>
</linearGradient>
<linearGradient id="paint8_linear" x1="27" y1="31" x2="27" y2="37" gradientUnits="userSpaceOnUse">
<stop stop-color="#3689E6"/>
<stop offset="1" stop-color="#36E6DB"/>
</linearGradient>
<linearGradient id="paint9_linear" x1="37.951" y1="31.6862" x2="37.951" y2="35" gradientUnits="userSpaceOnUse">
<stop stop-color="#3689E6"/>
<stop offset="1" stop-color="#36E6DB"/>
</linearGradient>
<linearGradient id="paint10_linear" x1="37.951" y1="31.6862" x2="37.951" y2="35" gradientUnits="userSpaceOnUse">
<stop stop-color="#3689E6"/>
<stop offset="1" stop-color="#36E6DB"/>
</linearGradient>
</defs>
</svg>
