<?xml version="1.0" encoding="UTF-8" standalone="no"?>
<svg
   xmlns:dc="http://purl.org/dc/elements/1.1/"
   xmlns:cc="http://creativecommons.org/ns#"
   xmlns:rdf="http://www.w3.org/1999/02/22-rdf-syntax-ns#"
   xmlns:svg="http://www.w3.org/2000/svg"
   xmlns="http://www.w3.org/2000/svg"
   xmlns:sodipodi="http://sodipodi.sourceforge.net/DTD/sodipodi-0.dtd"
   xmlns:inkscape="http://www.inkscape.org/namespaces/inkscape"
   inkscape:version="1.0alpha (1:0.92.0+devel+201904220706+bbf2da2)"
   sodipodi:docname="com.github.SubhadeepJasu.hemera.svg"
   id="svg99"
   version="1.1"
   fill="none"
   viewBox="0 0 64 64"
   height="64"
   width="64">
  <metadata
     id="metadata103">
    <rdf:RDF>
      <cc:Work
         rdf:about="">
        <dc:format>image/svg+xml</dc:format>
        <dc:type
           rdf:resource="http://purl.org/dc/dcmitype/StillImage" />
      </cc:Work>
    </rdf:RDF>
  </metadata>
  <sodipodi:namedview
     inkscape:current-layer="svg99"
     inkscape:window-maximized="1"
     inkscape:window-y="30"
     inkscape:window-x="0"
     inkscape:cy="32.799328"
     inkscape:cx="36.819988"
     inkscape:zoom="42.170418"
     showgrid="false"
     id="namedview101"
     inkscape:window-height="937"
     inkscape:window-width="1500"
     inkscape:pageshadow="2"
     inkscape:pageopacity="0"
     guidetolerance="10"
     gridtolerance="10"
     objecttolerance="10"
     borderopacity="1"
     inkscape:document-rotation="0"
     bordercolor="#666666"
     pagecolor="#ffffff" />
  <path
     id="path2"
     fill="url(#paint0_radial)"
     d="M56 55C56 56.0506 55.3792 57.0909 54.1731 58.0615C52.967 59.0321 51.1992 59.914 48.9706 60.6569C46.742 61.3997 44.0962 61.989 41.1844 62.391C38.2726 62.7931 35.1517 63 32 63C28.8483 63 25.7274 62.7931 22.8156 62.391C19.9038 61.989 17.258 61.3997 15.0294 60.6569C12.8008 59.914 11.033 59.0321 9.82689 58.0615C8.62078 57.0909 8 56.0506 8 55C8 53.9494 8.62078 52.9091 9.82689 51.9385C11.033 50.9679 12.8008 50.086 15.0294 49.3431C17.258 48.6003 19.9038 48.011 22.8156 47.609C25.7274 47.2069 28.8483 47 32 47C35.1517 47 38.2726 47.2069 41.1844 47.609C44.0962 48.011 46.742 48.6003 48.9706 49.3431C51.1992 50.086 52.967 50.9679 54.1731 51.9385C55.3792 52.9091 56 53.9494 56 55Z" />
  <circle
     id="circle4"
     fill="url(#paint1_linear)"
     r="25.5"
     cy="34"
     cx="32" />
  <circle
     id="circle6"
     stroke-opacity="0.3"
     stroke="black"
     r="25.5"
     cy="34"
     cx="32" />
  <circle
     id="circle8"
     stroke="url(#paint2_linear)"
     r="24.5"
     cy="34"
     cx="32" />
  <circle
     id="circle10"
     stroke-opacity="0.07"
     stroke="black"
     r="18.5"
     cy="34"
     cx="32" />
  <circle
     id="circle12"
     fill-opacity="0.15"
     fill="#010101"
     r="18"
     cy="34"
     cx="32" />
  <circle
     id="circle14"
     stroke-width="3"
     stroke="url(#paint3_linear)"
     r="15.5"
     cy="34"
     cx="32" />
  <path
     id="path16"
     stroke-opacity="0.3"
     stroke="black"
     d="M48.5 34C48.5 43.1127 41.1127 50.5 32 50.5C22.8873 50.5 15.5 43.1127 15.5 34C15.5 24.8873 22.8873 17.5 32 17.5C41.1127 17.5 48.5 24.8873 48.5 34Z" />
  <circle
     id="circle18"
     fill="url(#paint4_linear)"
     r="14"
     cy="34"
     cx="32" />
  <circle
     id="circle20"
     stroke="url(#paint5_linear)"
     r="13.5"
     cy="34"
     cx="32" />
  <circle
     id="circle22"
     stroke-opacity="0.07"
     stroke="black"
     r="3.5"
     cy="34"
     cx="27" />
  <circle
     id="circle24"
     fill="url(#paint6_linear)"
     r="3"
     cy="34"
     cx="27" />
  <circle
     id="circle26"
     stroke-opacity="0.15"
     stroke="black"
     r="2.5"
     cy="34"
     cx="27" />
  <path
     d="m 41.525391,31.691406 c -0.651441,0.04612 -2.075522,0.429575 -3.685547,1.015625 -1.557379,0.566815 -2.838331,1.161267 -3.400391,1.546875 C 34.185212,34.327343 34,34.409136 34,34.5 c 0,0.2761 1.3431,0.5 3,0.5 1.6569,0 3,-0.2239 3,-0.5 0,-0.269059 -1.282461,-0.485074 -2.880859,-0.496094 0.346412,-0.112613 0.68874,-0.221366 1.0625,-0.357422 2.1467,-0.7813 3.811197,-1.625265 3.716797,-1.884765 -0.02363,-0.06488 -0.155901,-0.08569 -0.373047,-0.07031 z"
     style="fill:url(#paint7_linear)"
     id="path28" />
  <path
     sodipodi:nodetypes="cccccscccsccccscccscccscc"
     inkscape:connector-curvature="0"
     style="stroke-width:1;stroke-miterlimit:38.3;stroke-dasharray:none"
     id="path32"
     stroke-opacity="0.07"
     stroke="black"
     d="m 39.9475,33.8402 c -0.1415,-0.0558 -1.366133,0.05131 -1.555333,0.01191 0.6409,-0.259 2.262733,-0.667814 2.714533,-0.897014 0.3446,-0.1747 0.6381,-0.3429 0.846,-0.4937 0.1008,-0.073 0.2064,-0.1597 0.2871,-0.2578 0.0518,-0.063 0.24,-0.3046 0.1281,-0.612 -0.1119,-0.3074 -0.4113,-0.3715 -0.4915,-0.3865 -0.1249,-0.0233 -0.2615,-0.0218 -0.3856,-0.013 -0.2563,0.0182 -0.5892,0.078 -0.9655,0.1656 -0.7593,0.1769 -1.77,0.4846 -2.8561,0.8799 -1.0861,0.3953 -2.0582,0.8092 -2.7535,1.1619 -0.257,0.1303 -0.4856,0.257 -0.6714,0.3755 -0.0686,0.0202 -0.1328,0.0419 -0.1918,0.0652 -0.0974,0.0384 -0.2102,0.0923 -0.3073,0.1714 C 33.6543,34.0856 33.5,34.2471 33.5,34.5 c 0,0.2529 0.1543,0.4144 0.2452,0.4885 0.0971,0.079 0.2099,0.1329 0.3073,0.1713 0.1997,0.0787 0.4592,0.1395 0.744,0.187 C 35.374,35.443 36.1528,35.5 37,35.5 c 0.8472,0 1.626,-0.057 2.2035,-0.1532 0.2848,-0.0475 0.5443,-0.1083 0.744,-0.187 0.0974,-0.0384 0.2102,-0.0923 0.3073,-0.1713 C 40.3457,34.9144 40.5,34.7529 40.5,34.5 c 0,-0.2529 -0.1543,-0.4144 -0.2452,-0.4884 -0.0971,-0.0791 -0.2099,-0.133 -0.3073,-0.1714 z" />
  <g
     id="g930" />
  <defs
     id="defs97">
    <radialGradient
       gradientTransform="translate(31.9997 55.0006) scale(23.9997 8.00029)"
       gradientUnits="userSpaceOnUse"
       r="1"
       cy="0"
       cx="0"
       id="paint0_radial">
      <stop
         id="stop40"
         stop-color="#3D3D3D" />
      <stop
         id="stop42"
         stop-opacity="0.498"
         stop-color="#686868"
         offset="0.5" />
      <stop
         id="stop44"
         stop-opacity="0"
         stop-color="#686868"
         offset="1" />
    </radialGradient>
    <linearGradient
       gradientUnits="userSpaceOnUse"
       y2="59.5"
       x2="32"
       y1="8.5"
       x1="32"
       id="paint1_linear">
      <stop
         id="stop47"
         stop-color="#FAFAFA" />
      <stop
         id="stop49"
         stop-color="#D4D4D4"
         offset="1" />
    </linearGradient>
    <linearGradient
       gradientUnits="userSpaceOnUse"
       y2="59"
       x2="32"
       y1="9"
       x1="32"
       id="paint2_linear">
      <stop
         id="stop52"
         stop-opacity="0.3"
         stop-color="white" />
      <stop
         id="stop54"
         stop-opacity="0.21"
         stop-color="white"
         offset="1" />
    </linearGradient>
    <linearGradient
       gradientUnits="userSpaceOnUse"
       y2="51"
       x2="32"
       y1="17"
       x1="32"
       id="paint3_linear">
      <stop
         id="stop57"
         stop-color="#CD9EF7" />
      <stop
         id="stop59"
         stop-color="#64FFE3"
         offset="1" />
    </linearGradient>
    <linearGradient
       gradientUnits="userSpaceOnUse"
       y2="48"
       x2="32"
       y1="20"
       x1="32"
       id="paint4_linear">
      <stop
         id="stop62"
         stop-color="#F8F8F8" />
      <stop
         id="stop64"
         stop-color="#E9E9E9"
         offset="1" />
    </linearGradient>
    <linearGradient
       gradientUnits="userSpaceOnUse"
       y2="48"
       x2="32"
       y1="20"
       x1="32"
       id="paint5_linear">
      <stop
         id="stop67"
         stop-opacity="0.36" />
      <stop
         id="stop69"
         stop-opacity="0.27"
         offset="1" />
    </linearGradient>
    <linearGradient
       gradientUnits="userSpaceOnUse"
       y2="36.3203"
       x2="28.6875"
       y1="31.6797"
       x1="25.3125"
       id="paint6_linear">
      <stop
         id="stop72"
         stop-color="#3689E6" />
      <stop
         id="stop74"
         stop-color="#36E6DB"
         offset="1" />
    </linearGradient>
    <linearGradient
       gradientUnits="userSpaceOnUse"
       y2="35"
       x2="37.951"
       y1="31.6862"
       x1="37.951"
       id="paint7_linear">
      <stop
         id="stop77"
         stop-color="#3689E6" />
      <stop
         id="stop79"
         stop-color="#36E6DB"
         offset="1" />
    </linearGradient>
    <linearGradient
       gradientUnits="userSpaceOnUse"
       y2="35"
       x2="37.951"
       y1="31.6862"
       x1="37.951"
       id="paint8_linear">
      <stop
         id="stop82"
         stop-color="#3689E6" />
      <stop
         id="stop84"
         stop-color="#36E6DB"
         offset="1" />
    </linearGradient>
    <linearGradient
       gradientUnits="userSpaceOnUse"
       y2="35.6468"
       x2="36.822"
       y1="32.0616"
       x1="35.7285"
       id="paint9_linear">
      <stop
         id="stop87"
         stop-color="#3689E6" />
      <stop
         id="stop89"
         stop-color="#36E6DB"
         offset="1" />
    </linearGradient>
    <linearGradient
       gradientUnits="userSpaceOnUse"
       y2="35.6468"
       x2="36.822"
       y1="32.0616"
       x1="35.7285"
       id="paint10_linear">
      <stop
         id="stop92"
         stop-color="#3689E6" />
      <stop
         id="stop94"
         stop-color="#36E6DB"
         offset="1" />
    </linearGradient>
  </defs>
  <path
     id="path947"
     style="fill:#000000;fill-opacity:0.14901961"
     d="m 41.525391,31.691406 c -0.651441,0.04612 -2.075522,0.429575 -3.685547,1.015625 -1.557379,0.566815 -2.838331,1.161267 -3.400391,1.546875 C 34.185212,34.327343 34,34.409136 34,34.5 c 0,0.2761 1.3431,0.5 3,0.5 1.6569,0 3,-0.2239 3,-0.5 0,-0.269059 -1.282461,-0.485074 -2.880859,-0.496094 0.346412,-0.112613 0.68874,-0.221366 1.0625,-0.357422 2.1467,-0.7813 3.811197,-1.625265 3.716797,-1.884765 -0.02363,-0.06488 -0.155901,-0.08569 -0.373047,-0.07031 z" />
</svg>
