<svg width="128" height="128" viewBox="0 0 128 128" fill="none" xmlns="http://www.w3.org/2000/svg">
<g opacity="0.4">
<rect x="44" y="110" width="40" height="16" fill="url(#paint0_linear)"/>
<rect x="28" y="110" width="16" height="16" fill="url(#paint1_radial)"/>
<rect width="16" height="16" transform="matrix(-1 0 0 1 100 110)" fill="url(#paint2_radial)"/>
</g>
<circle cx="64.5" cy="71.5" r="47" fill="url(#paint3_linear)"/>
<circle cx="64.5" cy="71.5" r="47" stroke="black" stroke-opacity="0.5"/>
<circle cx="64.5" cy="71.5" r="46" stroke="url(#paint4_linear)"/>
<circle cx="64" cy="72" r="36.5" stroke="black" stroke-opacity="0.07"/>
<circle cx="64" cy="72" r="36" fill="#010101" fill-opacity="0.15"/>
<circle cx="64" cy="72" r="32" stroke="url(#paint5_linear)" stroke-width="6"/>
<path d="M98.5 72C98.5 91.0538 83.0538 106.5 64 106.5C44.9462 106.5 29.5 91.0538 29.5 72C29.5 52.9462 44.9462 37.5 64 37.5C83.0538 37.5 98.5 52.9462 98.5 72Z" stroke="black" stroke-opacity="0.3"/>
<path d="M93.5 72C93.5 88.2924 80.2924 101.5 64 101.5C47.7076 101.5 34.5 88.2924 34.5 72C34.5 55.7076 47.7076 42.5 64 42.5C80.2924 42.5 93.5 55.7076 93.5 72Z" stroke="black" stroke-opacity="0.3"/>
<circle cx="64" cy="72" r="29" fill="url(#paint6_linear)"/>
<circle cx="64" cy="72" r="28.5" stroke="url(#paint7_linear)"/>
<circle cx="54" cy="72" r="6.5" stroke="black" stroke-opacity="0.07"/>
<circle cx="54" cy="72" r="6" fill="url(#paint8_linear)"/>
<path d="M79.9971 73.6211C79.9971 74.1728 77.3115 74.62 73.9985 74.62C70.6856 74.62 68 74.1728 68 73.6211C68 73.0695 70.6856 72.6223 73.9985 72.6223C77.3115 72.6223 79.9971 73.0695 79.9971 73.6211Z" fill="url(#paint9_linear)"/>
<path d="M83.7923 68.1526C83.9812 68.671 80.6547 70.3565 76.3624 71.9174C72.0702 73.4782 68.4375 74.3233 68.2486 73.8049C68.0598 73.2866 71.3863 71.601 75.6786 70.0401C79.9708 68.4793 83.6035 67.6342 83.7923 68.1526Z" fill="url(#paint10_linear)"/>
<path d="M78.3223 72.4216C77.906 72.3523 77.4333 72.2932 76.9177 72.2462C78.9201 71.5048 80.6981 70.7416 81.9838 70.0901C82.6644 69.7452 83.224 69.4232 83.6081 69.1449C83.7969 69.0081 83.9681 68.8643 84.0894 68.7169C84.1818 68.6047 84.386 68.3214 84.2621 67.9814C84.1384 67.6417 83.8001 67.556 83.6572 67.5293C83.4695 67.4943 83.2459 67.4941 83.0132 67.5106C82.54 67.5441 81.9042 67.6568 81.1609 67.8297C79.6677 68.1771 77.6665 68.7852 75.5077 69.5703C73.3488 70.3553 71.4246 71.1746 70.0572 71.8675C69.5194 72.1399 69.0573 72.3981 68.6975 72.6318C68.5472 72.6741 68.41 72.7192 68.2882 72.7671C68.115 72.8353 67.9433 72.9205 67.8063 73.032C67.6755 73.1384 67.5 73.3336 67.5 73.6211C67.5 73.9087 67.6755 74.1038 67.8063 74.2103C67.9433 74.3218 68.115 74.407 68.2882 74.4752C68.6397 74.6136 69.1188 74.7281 69.6748 74.8207C70.7949 75.0072 72.3233 75.12 73.9985 75.12C75.6738 75.12 77.2022 75.0072 78.3223 74.8207C78.8783 74.7281 79.3574 74.6136 79.7089 74.4752C79.8821 74.407 80.0538 74.3218 80.1908 74.2103C80.3216 74.1038 80.4971 73.9087 80.4971 73.6211C80.4971 73.3336 80.3216 73.1384 80.1908 73.032C80.0538 72.9205 79.8821 72.8353 79.7089 72.7671C79.3574 72.6287 78.8783 72.5142 78.3223 72.4216Z" stroke="black" stroke-opacity="0.07"/>
<defs>
<linearGradient id="paint0_linear" x1="64" y1="110" x2="64" y2="126" gradientUnits="userSpaceOnUse">
<stop stop-opacity="0"/>
<stop offset="0.491713" stop-opacity="0.6"/>
<stop offset="1" stop-opacity="0"/>
</linearGradient>
<radialGradient id="paint1_radial" cx="0" cy="0" r="1" gradientUnits="userSpaceOnUse" gradientTransform="translate(44 118) rotate(-180) scale(16 8)">
<stop stop-opacity="0.6"/>
<stop offset="1" stop-opacity="0"/>
</radialGradient>
<radialGradient id="paint2_radial" cx="0" cy="0" r="1" gradientUnits="userSpaceOnUse" gradientTransform="translate(16 8) rotate(-180) scale(16 8)">
<stop stop-opacity="0.6"/>
<stop offset="1" stop-opacity="0"/>
</radialGradient>
<linearGradient id="paint3_linear" x1="64.5" y1="24.5" x2="64.5" y2="118.5" gradientUnits="userSpaceOnUse">
<stop stop-color="#FAFAFA"/>
<stop offset="1" stop-color="#D4D4D4"/>
</linearGradient>
<linearGradient id="paint4_linear" x1="64.5" y1="25" x2="64.5" y2="118" gradientUnits="userSpaceOnUse">
<stop stop-color="white" stop-opacity="0.3"/>
<stop offset="1" stop-color="white" stop-opacity="0.21"/>
</linearGradient>
<linearGradient id="paint5_linear" x1="64" y1="37" x2="64" y2="107" gradientUnits="userSpaceOnUse">
<stop stop-color="#CD9EF7"/>
<stop offset="1" stop-color="#64FFE3"/>
</linearGradient>
<linearGradient id="paint6_linear" x1="64" y1="43" x2="64" y2="101" gradientUnits="userSpaceOnUse">
<stop stop-color="#F8F8F8"/>
<stop offset="1" stop-color="#E9E9E9"/>
</linearGradient>
<linearGradient id="paint7_linear" x1="64" y1="43" x2="64" y2="101" gradientUnits="userSpaceOnUse">
<stop stop-color="white" stop-opacity="0.36"/>
<stop offset="1" stop-color="white" stop-opacity="0.27"/>
</linearGradient>
<linearGradient id="paint8_linear" x1="54" y1="66" x2="54" y2="78" gradientUnits="userSpaceOnUse">
<stop stop-color="#3689E6"/>
<stop offset="1" stop-color="#36E6DB"/>
</linearGradient>
<linearGradient id="paint9_linear" x1="75.9" y1="68" x2="75.9" y2="74.62" gradientUnits="userSpaceOnUse">
<stop stop-color="#3689E6"/>
<stop offset="1" stop-color="#36E6DB"/>
</linearGradient>
<linearGradient id="paint10_linear" x1="75.9" y1="68" x2="75.9" y2="74.62" gradientUnits="userSpaceOnUse">
<stop stop-color="#3689E6"/>
<stop offset="1" stop-color="#36E6DB"/>
</linearGradient>
</defs>
</svg>
