<svg width="32" height="32" viewBox="0 0 32 32" fill="none" xmlns="http://www.w3.org/2000/svg">
<path d="M24 28C24 28.394 23.7931 28.7841 23.391 29.148C22.989 29.512 22.3997 29.8427 21.6569 30.1213C20.914 30.3999 20.0321 30.6209 19.0615 30.7716C18.0909 30.9224 17.0506 31 16 31C14.9494 31 13.9091 30.9224 12.9385 30.7716C11.9679 30.6209 11.086 30.3999 10.3431 30.1213C9.60028 29.8427 9.011 29.512 8.60896 29.148C8.20693 28.7841 8 28.394 8 28C8 27.606 8.20693 27.2159 8.60896 26.852C9.011 26.488 9.60028 26.1573 10.3431 25.8787C11.086 25.6001 11.9679 25.3791 12.9385 25.2284C13.9091 25.0776 14.9494 25 16 25C17.0506 25 18.0909 25.0776 19.0615 25.2284C20.0321 25.3791 20.914 25.6001 21.6569 25.8787C22.3997 26.1573 22.989 26.488 23.391 26.852C23.7931 27.2159 24 27.606 24 28Z" fill="url(#paint0_radial)"/>
<circle cx="16" cy="18" r="11.5" fill="url(#paint1_linear)"/>
<circle cx="16" cy="18" r="11.5" stroke="black" stroke-opacity="0.3"/>
<circle cx="16" cy="18" r="10.5" stroke="url(#paint2_linear)"/>
<circle cx="16" cy="18" r="9" fill="#010101" fill-opacity="0.07"/>
<circle cx="16" cy="18" r="7" stroke="url(#paint3_linear)" stroke-width="2"/>
<path d="M23.5 18C23.5 22.1421 20.1421 25.5 16 25.5C11.8579 25.5 8.5 22.1421 8.5 18C8.5 13.8579 11.8579 10.5 16 10.5C20.1421 10.5 23.5 13.8579 23.5 18Z" stroke="black" stroke-opacity="0.3"/>
<circle cx="16" cy="18" r="5" fill="url(#paint4_linear)"/>
<circle cx="16" cy="18" r="5.5" stroke="url(#paint5_linear)"/>
<circle cx="14.0041" cy="18" r="1" stroke="black" stroke-opacity="0.07"/>
<circle cx="14.0041" cy="18" r="1" fill="url(#paint6_linear)"/>
<path d="M18.6656 18.4053C18.6656 18.5432 18.2406 18.655 17.7165 18.655C17.1923 18.655 16.7673 18.5432 16.7673 18.4053C16.7673 18.2674 17.1923 18.1556 17.7165 18.1556C18.2406 18.1556 18.6656 18.2674 18.6656 18.4053Z" fill="url(#paint7_linear)"/>
<path d="M19.2661 17.0381C19.296 17.1677 18.7696 17.5891 18.0905 17.9793C17.4113 18.3696 16.8365 18.5808 16.8067 18.4512C16.7768 18.3216 17.3031 17.9002 17.9823 17.51C18.6614 17.1198 19.2362 16.9086 19.2661 17.0381Z" fill="url(#paint8_linear)"/>
<path d="M18.7231 18.0958C18.6652 18.0598 18.5972 18.0314 18.5264 18.0088C18.748 17.8691 18.945 17.7306 19.1004 17.6062C19.2119 17.5169 19.3091 17.4293 19.3788 17.3495C19.4132 17.3101 19.4481 17.2646 19.4738 17.2153C19.4955 17.1736 19.5337 17.0861 19.5097 16.982C19.4795 16.8508 19.377 16.7878 19.3009 16.7654C19.2339 16.7457 19.1676 16.7486 19.1206 16.7539C19.0218 16.7649 18.9035 16.7997 18.7814 16.8445C18.5317 16.9363 18.205 17.0938 17.8577 17.2933C17.51 17.4931 17.1974 17.703 16.9723 17.8832C16.8946 17.9454 16.8239 18.0069 16.7645 18.0654C16.7455 18.0749 16.7272 18.085 16.7099 18.0958C16.645 18.1362 16.5173 18.2341 16.5173 18.4053C16.5173 18.5765 16.645 18.6744 16.7099 18.7148C16.7881 18.7634 16.8846 18.7981 16.9817 18.8236C17.1796 18.8757 17.4393 18.905 17.7165 18.905C17.9936 18.905 18.2533 18.8757 18.4512 18.8236C18.5483 18.7981 18.6448 18.7634 18.7231 18.7148C18.7879 18.6744 18.9156 18.5765 18.9156 18.4053C18.9156 18.2341 18.7879 18.1362 18.7231 18.0958Z" stroke="black" stroke-opacity="0.07" stroke-width="0.5"/>
<defs>
<radialGradient id="paint0_radial" cx="0" cy="0" r="1" gradientUnits="userSpaceOnUse" gradientTransform="translate(15.9999 28.0002) scale(7.99991 3.00011)">
<stop stop-color="#3D3D3D"/>
<stop offset="0.5" stop-color="#686868" stop-opacity="0.498"/>
<stop offset="1" stop-color="#686868" stop-opacity="0"/>
</radialGradient>
<linearGradient id="paint1_linear" x1="16" y1="6.5" x2="16" y2="29.5" gradientUnits="userSpaceOnUse">
<stop stop-color="#FAFAFA"/>
<stop offset="1" stop-color="#D4D4D4"/>
</linearGradient>
<linearGradient id="paint2_linear" x1="16" y1="7" x2="16" y2="29" gradientUnits="userSpaceOnUse">
<stop stop-color="white" stop-opacity="0.3"/>
<stop offset="1" stop-color="white" stop-opacity="0.21"/>
</linearGradient>
<linearGradient id="paint3_linear" x1="16" y1="10" x2="16" y2="26" gradientUnits="userSpaceOnUse">
<stop stop-color="#CD9EF7"/>
<stop offset="1" stop-color="#64FFE3"/>
</linearGradient>
<linearGradient id="paint4_linear" x1="16" y1="13" x2="16" y2="23" gradientUnits="userSpaceOnUse">
<stop stop-color="#F8F8F8"/>
<stop offset="1" stop-color="#E9E9E9"/>
</linearGradient>
<linearGradient id="paint5_linear" x1="16" y1="12" x2="16" y2="24" gradientUnits="userSpaceOnUse">
<stop stop-opacity="0.36"/>
<stop offset="1" stop-opacity="0.27"/>
</linearGradient>
<linearGradient id="paint6_linear" x1="14.0041" y1="17" x2="14.0041" y2="19" gradientUnits="userSpaceOnUse">
<stop stop-color="#3689E6"/>
<stop offset="1" stop-color="#36E6DB"/>
</linearGradient>
<linearGradient id="paint7_linear" x1="18.0173" y1="17" x2="18.0173" y2="18.655" gradientUnits="userSpaceOnUse">
<stop stop-color="#3689E6"/>
<stop offset="1" stop-color="#36E6DB"/>
</linearGradient>
<linearGradient id="paint8_linear" x1="18.0173" y1="17" x2="18.0173" y2="18.655" gradientUnits="userSpaceOnUse">
<stop stop-color="#3689E6"/>
<stop offset="1" stop-color="#36E6DB"/>
</linearGradient>
</defs>
</svg>
