<svg width="32" height="32" viewBox="0 0 32 32" fill="none" xmlns="http://www.w3.org/2000/svg">
<g opacity="0.4">
<rect x="11" y="27.5" width="10" height="4" fill="url(#paint0_linear)"/>
<rect x="7" y="27.5" width="4" height="4" fill="url(#paint1_radial)"/>
<rect width="4" height="4" transform="matrix(-1 0 0 1 25 27.5)" fill="url(#paint2_radial)"/>
</g>
<circle cx="16" cy="18" r="11.5" fill="url(#paint3_linear)"/>
<circle cx="16" cy="18" r="11.5" stroke="black" stroke-opacity="0.5"/>
<circle cx="16" cy="18" r="10.5" stroke="url(#paint4_linear)"/>
<circle cx="16" cy="18" r="8" fill="#010101" fill-opacity="0.07"/>
<circle cx="16" cy="18" r="6" stroke="url(#paint5_linear)" stroke-width="2"/>
<path d="M22.5 18C22.5 21.5899 19.5899 24.5 16 24.5C12.4101 24.5 9.5 21.5899 9.5 18C9.5 14.4101 12.4101 11.5 16 11.5C19.5899 11.5 22.5 14.4101 22.5 18Z" stroke="black" stroke-opacity="0.3"/>
<circle cx="16" cy="18" r="5" fill="url(#paint6_linear)"/>
<circle cx="16" cy="18" r="4.5" stroke="url(#paint7_linear)"/>
<circle cx="14.5" cy="18" r="1" stroke="black" stroke-opacity="0.07"/>
<circle cx="14.5" cy="18" r="1" fill="url(#paint8_linear)"/>
<path d="M18.3983 18.4053C18.3983 18.5432 17.9733 18.655 17.4491 18.655C16.9249 18.655 16.5 18.5432 16.5 18.4053C16.5 18.2674 16.9249 18.1556 17.4491 18.1556C17.9733 18.1556 18.3983 18.2674 18.3983 18.4053Z" fill="url(#paint9_linear)"/>
<path d="M18.9988 17.0381C19.0287 17.1677 18.5023 17.5891 17.8232 17.9793C17.144 18.3696 16.5692 18.5808 16.5393 18.4512C16.5095 18.3216 17.0358 17.9002 17.715 17.51C18.3941 17.1198 18.9689 16.9086 18.9988 17.0381Z" fill="url(#paint10_linear)"/>
<path d="M18.4557 18.0958C18.3978 18.0598 18.3299 18.0314 18.2591 18.0088C18.4806 17.8691 18.6777 17.7306 18.8331 17.6062C18.9446 17.5169 19.0417 17.4293 19.1115 17.3495C19.1459 17.3101 19.1807 17.2646 19.2064 17.2153C19.2281 17.1736 19.2664 17.0861 19.2424 16.982C19.2122 16.8508 19.1097 16.7878 19.0336 16.7654C18.9666 16.7457 18.9003 16.7486 18.8533 16.7539C18.7544 16.7649 18.6362 16.7997 18.5141 16.8445C18.2643 16.9363 17.9376 17.0938 17.5904 17.2933C17.2427 17.4931 16.9301 17.703 16.705 17.8832C16.6273 17.9454 16.5565 18.0069 16.4972 18.0654C16.4782 18.0749 16.4599 18.085 16.4425 18.0958C16.3777 18.1362 16.25 18.2341 16.25 18.4053C16.25 18.5765 16.3777 18.6744 16.4425 18.7148C16.5207 18.7634 16.6173 18.7981 16.7144 18.8236C16.9123 18.8757 17.172 18.905 17.4491 18.905C17.7263 18.905 17.986 18.8757 18.1839 18.8236C18.281 18.7981 18.3775 18.7634 18.4557 18.7148C18.5206 18.6744 18.6483 18.5765 18.6483 18.4053C18.6483 18.2341 18.5206 18.1362 18.4557 18.0958Z" stroke="black" stroke-opacity="0.07" stroke-width="0.5"/>
<defs>
<linearGradient id="paint0_linear" x1="16" y1="27.5" x2="16" y2="31.5" gradientUnits="userSpaceOnUse">
<stop stop-opacity="0"/>
<stop offset="0.491713" stop-opacity="0.6"/>
<stop offset="1" stop-opacity="0"/>
</linearGradient>
<radialGradient id="paint1_radial" cx="0" cy="0" r="1" gradientUnits="userSpaceOnUse" gradientTransform="translate(11 29.5) rotate(-180) scale(4 2)">
<stop stop-opacity="0.6"/>
<stop offset="1" stop-opacity="0"/>
</radialGradient>
<radialGradient id="paint2_radial" cx="0" cy="0" r="1" gradientUnits="userSpaceOnUse" gradientTransform="translate(4 2) rotate(-180) scale(4 2)">
<stop stop-opacity="0.6"/>
<stop offset="1" stop-opacity="0"/>
</radialGradient>
<linearGradient id="paint3_linear" x1="16" y1="6.5" x2="16" y2="29.5" gradientUnits="userSpaceOnUse">
<stop stop-color="#FAFAFA"/>
<stop offset="1" stop-color="#D4D4D4"/>
</linearGradient>
<linearGradient id="paint4_linear" x1="16" y1="7" x2="16" y2="29" gradientUnits="userSpaceOnUse">
<stop stop-color="white" stop-opacity="0.3"/>
<stop offset="1" stop-color="white" stop-opacity="0.21"/>
</linearGradient>
<linearGradient id="paint5_linear" x1="16" y1="11" x2="16" y2="25" gradientUnits="userSpaceOnUse">
<stop stop-color="#CD9EF7"/>
<stop offset="1" stop-color="#64FFE3"/>
</linearGradient>
<linearGradient id="paint6_linear" x1="16" y1="13" x2="16" y2="23" gradientUnits="userSpaceOnUse">
<stop stop-color="#F8F8F8"/>
<stop offset="1" stop-color="#E9E9E9"/>
</linearGradient>
<linearGradient id="paint7_linear" x1="16" y1="13" x2="16" y2="23" gradientUnits="userSpaceOnUse">
<stop stop-opacity="0.36"/>
<stop offset="1" stop-opacity="0.27"/>
</linearGradient>
<linearGradient id="paint8_linear" x1="14.5" y1="17" x2="14.5" y2="19" gradientUnits="userSpaceOnUse">
<stop stop-color="#3689E6"/>
<stop offset="1" stop-color="#36E6DB"/>
</linearGradient>
<linearGradient id="paint9_linear" x1="17.75" y1="17" x2="17.75" y2="18.655" gradientUnits="userSpaceOnUse">
<stop stop-color="#3689E6"/>
<stop offset="1" stop-color="#36E6DB"/>
</linearGradient>
<linearGradient id="paint10_linear" x1="17.75" y1="17" x2="17.75" y2="18.655" gradientUnits="userSpaceOnUse">
<stop stop-color="#3689E6"/>
<stop offset="1" stop-color="#36E6DB"/>
</linearGradient>
</defs>
</svg>
