<svg width="16" height="16" viewBox="0 0 16 16" fill="none" xmlns="http://www.w3.org/2000/svg">
<g opacity="0.4">
<rect x="5" y="13" width="5" height="3" fill="url(#paint0_linear)"/>
<rect x="3" y="13" width="2" height="3" fill="url(#paint1_radial)"/>
<rect width="2" height="3" transform="matrix(-1 0 0 1 12 13)" fill="url(#paint2_radial)"/>
</g>
<circle cx="7.5" cy="8.5" r="6" fill="url(#paint3_linear)"/>
<circle cx="7.5" cy="8.5" r="6" stroke="black" stroke-opacity="0.5"/>
<circle cx="7.5" cy="8.5" r="5" stroke="url(#paint4_linear)"/>
<circle cx="7.5" cy="8.5" r="3" stroke="url(#paint5_linear)"/>
<circle cx="7.5" cy="8.5" r="2.5" fill="url(#paint6_linear)"/>
<circle cx="7.5" cy="8.5" r="3" stroke="black" stroke-opacity="0.1"/>
<circle cx="6.5" cy="8.5" r="0.5" fill="url(#paint7_linear)"/>
<circle cx="8.5" cy="8.5" r="0.5" fill="url(#paint8_linear)"/>
<defs>
<linearGradient id="paint0_linear" x1="7.5" y1="13" x2="7.5" y2="16" gradientUnits="userSpaceOnUse">
<stop stop-opacity="0"/>
<stop offset="0.491713" stop-opacity="0.6"/>
<stop offset="1" stop-opacity="0"/>
</linearGradient>
<radialGradient id="paint1_radial" cx="0" cy="0" r="1" gradientUnits="userSpaceOnUse" gradientTransform="translate(5 14.5) rotate(-180) scale(2 1.5)">
<stop stop-opacity="0.6"/>
<stop offset="1" stop-opacity="0"/>
</radialGradient>
<radialGradient id="paint2_radial" cx="0" cy="0" r="1" gradientUnits="userSpaceOnUse" gradientTransform="translate(2 1.5) rotate(-180) scale(2 1.5)">
<stop stop-opacity="0.6"/>
<stop offset="1" stop-opacity="0"/>
</radialGradient>
<linearGradient id="paint3_linear" x1="7.5" y1="2.5" x2="7.5" y2="14.5" gradientUnits="userSpaceOnUse">
<stop stop-color="#FAFAFA"/>
<stop offset="1" stop-color="#D4D4D4"/>
</linearGradient>
<linearGradient id="paint4_linear" x1="7.5" y1="3" x2="7.5" y2="14" gradientUnits="userSpaceOnUse">
<stop stop-color="white" stop-opacity="0.3"/>
<stop offset="1" stop-color="white" stop-opacity="0.21"/>
</linearGradient>
<linearGradient id="paint5_linear" x1="7.5" y1="5" x2="7.5" y2="12" gradientUnits="userSpaceOnUse">
<stop stop-color="#CD9EF7"/>
<stop offset="1" stop-color="#64FFE3"/>
</linearGradient>
<linearGradient id="paint6_linear" x1="7.5" y1="6" x2="7.5" y2="11" gradientUnits="userSpaceOnUse">
<stop stop-color="#F8F8F8"/>
<stop offset="1" stop-color="#E9E9E9"/>
</linearGradient>
<linearGradient id="paint7_linear" x1="6.5" y1="8" x2="6.5" y2="9" gradientUnits="userSpaceOnUse">
<stop stop-color="#3689E6"/>
<stop offset="1" stop-color="#36E6DB"/>
</linearGradient>
<linearGradient id="paint8_linear" x1="8.5" y1="8" x2="8.5" y2="9" gradientUnits="userSpaceOnUse">
<stop stop-color="#3689E6"/>
<stop offset="1" stop-color="#36E6DB"/>
</linearGradient>
</defs>
</svg>
