<svg width="16" height="16" viewBox="0 0 16 16" fill="none" xmlns="http://www.w3.org/2000/svg">
<path d="M12 14C12 14.2626 11.8836 14.5227 11.6575 14.7654C11.4313 15.008 11.0998 15.2285 10.682 15.4142C10.2641 15.5999 9.76804 15.7472 9.22208 15.8478C8.67611 15.9483 8.09095 16 7.5 16C6.90905 16 6.32389 15.9483 5.77792 15.8478C5.23196 15.7472 4.73588 15.5999 4.31802 15.4142C3.90016 15.2285 3.56869 15.008 3.34254 14.7654C3.1164 14.5227 3 14.2626 3 14C3 13.7374 3.1164 13.4773 3.34254 13.2346C3.56869 12.992 3.90016 12.7715 4.31802 12.5858C4.73588 12.4001 5.23196 12.2528 5.77792 12.1522C6.32389 12.0517 6.90905 12 7.5 12C8.09095 12 8.67611 12.0517 9.22208 12.1522C9.76804 12.2528 10.2641 12.4001 10.682 12.5858C11.0998 12.7715 11.4313 12.992 11.6575 13.2346C11.8836 13.4773 12 13.7374 12 14Z" fill="url(#paint0_radial)"/>
<circle cx="7.5" cy="8.5" r="6" fill="url(#paint1_linear)"/>
<circle cx="7.5" cy="8.5" r="6" stroke="black" stroke-opacity="0.3"/>
<circle cx="7.5" cy="8.5" r="5" stroke="url(#paint2_linear)"/>
<circle cx="7.5" cy="8.5" r="3" stroke="url(#paint3_linear)"/>
<circle cx="7.5" cy="8.5" r="2.5" fill="url(#paint4_linear)"/>
<circle cx="7.5" cy="8.5" r="3" stroke="black" stroke-opacity="0.1"/>
<circle cx="6.5" cy="8.5" r="0.5" fill="url(#paint5_linear)"/>
<circle cx="8.5" cy="8.5" r="0.5" fill="url(#paint6_linear)"/>
<defs>
<radialGradient id="paint0_radial" cx="0" cy="0" r="1" gradientUnits="userSpaceOnUse" gradientTransform="translate(7.49994 14.0002) scale(4.49995 2.00007)">
<stop stop-color="#3D3D3D"/>
<stop offset="0.5" stop-color="#686868" stop-opacity="0.498"/>
<stop offset="1" stop-color="#686868" stop-opacity="0"/>
</radialGradient>
<linearGradient id="paint1_linear" x1="7.5" y1="2.5" x2="7.5" y2="14.5" gradientUnits="userSpaceOnUse">
<stop stop-color="#FAFAFA"/>
<stop offset="1" stop-color="#D4D4D4"/>
</linearGradient>
<linearGradient id="paint2_linear" x1="7.5" y1="3" x2="7.5" y2="14" gradientUnits="userSpaceOnUse">
<stop stop-color="white" stop-opacity="0.3"/>
<stop offset="1" stop-color="white" stop-opacity="0.21"/>
</linearGradient>
<linearGradient id="paint3_linear" x1="7.5" y1="5" x2="7.5" y2="12" gradientUnits="userSpaceOnUse">
<stop stop-color="#CD9EF7"/>
<stop offset="1" stop-color="#64FFE3"/>
</linearGradient>
<linearGradient id="paint4_linear" x1="7.5" y1="6" x2="7.5" y2="11" gradientUnits="userSpaceOnUse">
<stop stop-color="#F8F8F8"/>
<stop offset="1" stop-color="#E9E9E9"/>
</linearGradient>
<linearGradient id="paint5_linear" x1="6.5" y1="8" x2="6.5" y2="9" gradientUnits="userSpaceOnUse">
<stop stop-color="#3689E6"/>
<stop offset="1" stop-color="#36E6DB"/>
</linearGradient>
<linearGradient id="paint6_linear" x1="8.5" y1="8" x2="8.5" y2="9" gradientUnits="userSpaceOnUse">
<stop stop-color="#3689E6"/>
<stop offset="1" stop-color="#36E6DB"/>
</linearGradient>
</defs>
</svg>
