<svg width="48" height="48" viewBox="0 0 48 48" fill="none" xmlns="http://www.w3.org/2000/svg">
<g opacity="0.4">
<rect x="16.7778" y="40" width="14.4444" height="8" fill="url(#paint0_linear)"/>
<rect x="11" y="40" width="5.77778" height="8" fill="url(#paint1_radial)"/>
<rect width="5.77778" height="8" transform="matrix(-1 0 0 1 37 40)" fill="url(#paint2_radial)"/>
</g>
<circle cx="23.5" cy="26.5" r="18" fill="url(#paint3_linear)"/>
<circle cx="23.5" cy="26.5" r="18" stroke="black" stroke-opacity="0.5"/>
<circle cx="23.5" cy="26.5" r="17" stroke="url(#paint4_linear)"/>
<circle cx="24" cy="27" r="13.5" stroke="black" stroke-opacity="0.07"/>
<circle cx="24" cy="27" r="13" fill="#010101" fill-opacity="0.15"/>
<circle cx="24" cy="27" r="11" stroke="url(#paint5_linear)" stroke-width="2"/>
<path d="M35.5 27C35.5 33.3513 30.3513 38.5 24 38.5C17.6487 38.5 12.5 33.3513 12.5 27C12.5 20.6487 17.6487 15.5 24 15.5C30.3513 15.5 35.5 20.6487 35.5 27Z" stroke="black" stroke-opacity="0.3"/>
<circle cx="24" cy="27" r="10" fill="url(#paint6_linear)"/>
<circle cx="24" cy="27" r="9.5" stroke="url(#paint7_linear)"/>
<circle cx="20.5" cy="26.5" r="2" stroke="black" stroke-opacity="0.07"/>
<circle cx="20.5" cy="26.5" r="1.5" fill="url(#paint8_linear)"/>
<path d="M28.7965 26.9647C28.7965 27.1575 27.9467 27.3138 26.8983 27.3138C25.8499 27.3138 25 27.1575 25 26.9647C25 26.7719 25.8499 26.6156 26.8983 26.6156C27.9467 26.6156 28.7965 26.7719 28.7965 26.9647Z" fill="url(#paint9_linear)"/>
<path d="M29.9976 25.0533C30.0573 25.2345 29.0047 25.8236 27.6463 26.3692C26.288 26.9147 25.1384 27.2101 25.0787 27.0289C25.0189 26.8477 26.0716 26.2586 27.4299 25.7131C28.7882 25.1675 29.9378 24.8722 29.9976 25.0533Z" fill="url(#paint10_linear)"/>
<path d="M25.0604 26.3275C25.0219 26.3408 24.9848 26.355 24.9498 26.3703C24.8781 26.4014 24.7861 26.4489 24.7043 26.5224C24.6242 26.5945 24.5 26.7425 24.5 26.9647C24.5 27.1868 24.6242 27.3348 24.7043 27.4069C24.7861 27.4804 24.8781 27.5279 24.9498 27.5591C25.0969 27.6231 25.2789 27.669 25.4656 27.7033C25.847 27.7735 26.3533 27.8138 26.8983 27.8138C27.4432 27.8138 27.9495 27.7735 28.331 27.7033C28.5176 27.669 28.6996 27.6231 28.8467 27.5591C28.9185 27.5279 29.0104 27.4804 29.0922 27.4069C29.1724 27.3348 29.2965 27.1868 29.2965 26.9647C29.2965 26.7425 29.1724 26.5945 29.0922 26.5224C29.0196 26.4572 28.9391 26.4125 28.8717 26.3814C29.1442 26.2528 29.3898 26.1274 29.5979 26.0109C29.8196 25.8869 30.0157 25.7636 30.1588 25.649C30.2278 25.5939 30.3073 25.5228 30.3703 25.4383C30.4119 25.3825 30.5624 25.1694 30.4724 24.8967C30.3756 24.6032 30.1039 24.5335 30.0267 24.5176C29.9189 24.4954 29.8092 24.4981 29.7232 24.5048C29.5429 24.5189 29.3184 24.5642 29.0763 24.6264C28.5846 24.7527 27.9362 24.9709 27.2436 25.2491C26.5508 25.5273 25.9276 25.8199 25.4783 26.0713C25.3234 26.158 25.181 26.2443 25.0604 26.3275ZM28.4575 26.6376C28.4588 26.6369 28.4594 26.6366 28.4595 26.6366C28.4595 26.6366 28.4589 26.6369 28.4575 26.6376ZM28.4595 27.2928C28.4594 27.2928 28.4588 27.2925 28.4575 27.2917C28.4589 27.2924 28.4595 27.2928 28.4595 27.2928Z" stroke="black" stroke-opacity="0.07"/>
<defs>
<linearGradient id="paint0_linear" x1="24" y1="40" x2="24" y2="48" gradientUnits="userSpaceOnUse">
<stop stop-opacity="0"/>
<stop offset="0.491713" stop-opacity="0.6"/>
<stop offset="1" stop-opacity="0"/>
</linearGradient>
<radialGradient id="paint1_radial" cx="0" cy="0" r="1" gradientUnits="userSpaceOnUse" gradientTransform="translate(16.7778 44) rotate(-180) scale(5.77778 4)">
<stop stop-opacity="0.6"/>
<stop offset="1" stop-opacity="0"/>
</radialGradient>
<radialGradient id="paint2_radial" cx="0" cy="0" r="1" gradientUnits="userSpaceOnUse" gradientTransform="translate(5.77778 4) rotate(-180) scale(5.77778 4)">
<stop stop-opacity="0.6"/>
<stop offset="1" stop-opacity="0"/>
</radialGradient>
<linearGradient id="paint3_linear" x1="23.5" y1="8.5" x2="23.5" y2="44.5" gradientUnits="userSpaceOnUse">
<stop stop-color="#FAFAFA"/>
<stop offset="1" stop-color="#D4D4D4"/>
</linearGradient>
<linearGradient id="paint4_linear" x1="23.5" y1="9" x2="23.5" y2="44" gradientUnits="userSpaceOnUse">
<stop stop-color="white" stop-opacity="0.3"/>
<stop offset="1" stop-color="white" stop-opacity="0.21"/>
</linearGradient>
<linearGradient id="paint5_linear" x1="24" y1="15" x2="24" y2="39" gradientUnits="userSpaceOnUse">
<stop stop-color="#CD9EF7"/>
<stop offset="1" stop-color="#64FFE3"/>
</linearGradient>
<linearGradient id="paint6_linear" x1="24" y1="17" x2="24" y2="37" gradientUnits="userSpaceOnUse">
<stop stop-color="#F8F8F8"/>
<stop offset="1" stop-color="#E9E9E9"/>
</linearGradient>
<linearGradient id="paint7_linear" x1="24" y1="17" x2="24" y2="37" gradientUnits="userSpaceOnUse">
<stop stop-opacity="0.36"/>
<stop offset="1" stop-opacity="0.27"/>
</linearGradient>
<linearGradient id="paint8_linear" x1="20.5" y1="25" x2="20.5" y2="28" gradientUnits="userSpaceOnUse">
<stop stop-color="#3689E6"/>
<stop offset="1" stop-color="#36E6DB"/>
</linearGradient>
<linearGradient id="paint9_linear" x1="27.5" y1="25" x2="27.5" y2="27.3138" gradientUnits="userSpaceOnUse">
<stop stop-color="#3689E6"/>
<stop offset="1" stop-color="#36E6DB"/>
</linearGradient>
<linearGradient id="paint10_linear" x1="27.5" y1="25" x2="27.5" y2="27.3138" gradientUnits="userSpaceOnUse">
<stop stop-color="#3689E6"/>
<stop offset="1" stop-color="#36E6DB"/>
</linearGradient>
</defs>
</svg>
